<mxfile host="app.diagrams.net" agent="Mozilla/5.0 (Windows NT 10.0; Win64; x64; rv:139.0) Gecko/20100101 Firefox/139.0" version="27.1.4">
  <diagram name="Página-1" id="ZfuYBb1uDBB9Q9XqHdRm">
    <mxGraphModel grid="1" page="1" gridSize="10" guides="1" tooltips="1" connect="1" arrows="1" fold="1" pageScale="1" pageWidth="827" pageHeight="1169" math="0" shadow="0">
      <root>
        <mxCell id="0" />
        <mxCell id="1" parent="0" />
        <mxCell id="Xy3kY2UkPaOCshvsATr--7" style="edgeStyle=orthogonalEdgeStyle;rounded=0;orthogonalLoop=1;jettySize=auto;html=1;exitX=0.5;exitY=0.5;exitDx=0;exitDy=0;exitPerimeter=0;entryX=0;entryY=0.5;entryDx=0;entryDy=0;" edge="1" parent="1" source="Xy3kY2UkPaOCshvsATr--1" target="Xy3kY2UkPaOCshvsATr--2">
          <mxGeometry relative="1" as="geometry" />
        </mxCell>
        <mxCell id="Xy3kY2UkPaOCshvsATr--1" value="Administrador" style="shape=umlActor;verticalLabelPosition=bottom;verticalAlign=top;html=1;" vertex="1" parent="1">
          <mxGeometry x="90" y="495" width="30" height="60" as="geometry" />
        </mxCell>
        <mxCell id="Xy3kY2UkPaOCshvsATr--2" value="Gestionar Equipos" style="ellipse;whiteSpace=wrap;html=1;" vertex="1" parent="1">
          <mxGeometry x="180" y="490" width="140" height="70" as="geometry" />
        </mxCell>
        <mxCell id="CLzJ8PDHlNXws62wAnhd-1" value="Creando informe técnico" style="ellipse;whiteSpace=wrap;html=1;" vertex="1" parent="1">
          <mxGeometry x="450" y="10" width="140" height="70" as="geometry" />
        </mxCell>
        <mxCell id="CLzJ8PDHlNXws62wAnhd-2" value="Modificando informe técnico" style="ellipse;whiteSpace=wrap;html=1;" vertex="1" parent="1">
          <mxGeometry x="450" y="90" width="140" height="70" as="geometry" />
        </mxCell>
        <mxCell id="CLzJ8PDHlNXws62wAnhd-3" value="Eliminando informe técnico" style="ellipse;whiteSpace=wrap;html=1;" vertex="1" parent="1">
          <mxGeometry x="450" y="170" width="140" height="70" as="geometry" />
        </mxCell>
        <mxCell id="CLzJ8PDHlNXws62wAnhd-4" value="Modificando cotización" style="ellipse;whiteSpace=wrap;html=1;" vertex="1" parent="1">
          <mxGeometry x="450" y="330" width="140" height="70" as="geometry" />
        </mxCell>
        <mxCell id="CLzJ8PDHlNXws62wAnhd-5" value="Eliminando cotización" style="ellipse;whiteSpace=wrap;html=1;" vertex="1" parent="1">
          <mxGeometry x="450" y="410" width="140" height="70" as="geometry" />
        </mxCell>
        <mxCell id="CLzJ8PDHlNXws62wAnhd-6" value="Declarando equipo como no reparable" style="ellipse;whiteSpace=wrap;html=1;" vertex="1" parent="1">
          <mxGeometry x="450" y="730" width="140" height="70" as="geometry" />
        </mxCell>
        <mxCell id="CLzJ8PDHlNXws62wAnhd-7" value="Modificando estado de equipo libremente" style="ellipse;whiteSpace=wrap;html=1;" vertex="1" parent="1">
          <mxGeometry x="450" y="810" width="140" height="70" as="geometry" />
        </mxCell>
        <mxCell id="CLzJ8PDHlNXws62wAnhd-8" value="Visualizando historial de equipo" style="ellipse;whiteSpace=wrap;html=1;" vertex="1" parent="1">
          <mxGeometry x="450" y="890" width="140" height="70" as="geometry" />
        </mxCell>
        <mxCell id="CLzJ8PDHlNXws62wAnhd-9" value="Visualizando equipos" style="ellipse;whiteSpace=wrap;html=1;" vertex="1" parent="1">
          <mxGeometry x="450" y="970" width="140" height="70" as="geometry" />
        </mxCell>
        <mxCell id="CLzJ8PDHlNXws62wAnhd-10" value="Extends" style="endArrow=block;endSize=16;endFill=0;html=1;rounded=0;exitX=1;exitY=0.5;exitDx=0;exitDy=0;entryX=0;entryY=0.5;entryDx=0;entryDy=0;" edge="1" parent="1" source="Xy3kY2UkPaOCshvsATr--2" target="CLzJ8PDHlNXws62wAnhd-1">
          <mxGeometry width="160" relative="1" as="geometry">
            <mxPoint x="350" y="640" as="sourcePoint" />
            <mxPoint x="510" y="640" as="targetPoint" />
          </mxGeometry>
        </mxCell>
        <mxCell id="CLzJ8PDHlNXws62wAnhd-12" value="Extends" style="endArrow=block;endSize=16;endFill=0;html=1;rounded=0;exitX=1;exitY=0.5;exitDx=0;exitDy=0;entryX=0;entryY=0.5;entryDx=0;entryDy=0;" edge="1" parent="1" source="Xy3kY2UkPaOCshvsATr--2" target="CLzJ8PDHlNXws62wAnhd-8">
          <mxGeometry width="160" relative="1" as="geometry">
            <mxPoint x="130" y="710" as="sourcePoint" />
            <mxPoint x="290" y="710" as="targetPoint" />
          </mxGeometry>
        </mxCell>
        <mxCell id="CLzJ8PDHlNXws62wAnhd-13" value="Extends" style="endArrow=block;endSize=16;endFill=0;html=1;rounded=0;entryX=0;entryY=0.5;entryDx=0;entryDy=0;" edge="1" parent="1" target="CLzJ8PDHlNXws62wAnhd-9">
          <mxGeometry width="160" relative="1" as="geometry">
            <mxPoint x="320" y="530" as="sourcePoint" />
            <mxPoint x="300" y="720" as="targetPoint" />
          </mxGeometry>
        </mxCell>
        <mxCell id="CLzJ8PDHlNXws62wAnhd-14" value="Extends" style="endArrow=block;endSize=16;endFill=0;html=1;rounded=0;exitX=1;exitY=0.5;exitDx=0;exitDy=0;entryX=0;entryY=0.5;entryDx=0;entryDy=0;" edge="1" parent="1" source="Xy3kY2UkPaOCshvsATr--2" target="CLzJ8PDHlNXws62wAnhd-7">
          <mxGeometry width="160" relative="1" as="geometry">
            <mxPoint x="140" y="180" as="sourcePoint" />
            <mxPoint x="300" y="180" as="targetPoint" />
          </mxGeometry>
        </mxCell>
        <mxCell id="CLzJ8PDHlNXws62wAnhd-15" value="Extends" style="endArrow=block;endSize=16;endFill=0;html=1;rounded=0;exitX=1;exitY=0.5;exitDx=0;exitDy=0;entryX=0;entryY=0.5;entryDx=0;entryDy=0;" edge="1" parent="1" source="Xy3kY2UkPaOCshvsATr--2" target="CLzJ8PDHlNXws62wAnhd-6">
          <mxGeometry width="160" relative="1" as="geometry">
            <mxPoint x="150" y="190" as="sourcePoint" />
            <mxPoint x="310" y="190" as="targetPoint" />
          </mxGeometry>
        </mxCell>
        <mxCell id="CLzJ8PDHlNXws62wAnhd-16" value="Extends" style="endArrow=block;endSize=16;endFill=0;html=1;rounded=0;exitX=1;exitY=0.5;exitDx=0;exitDy=0;entryX=0;entryY=0.5;entryDx=0;entryDy=0;" edge="1" parent="1" source="Xy3kY2UkPaOCshvsATr--2" target="CLzJ8PDHlNXws62wAnhd-5">
          <mxGeometry width="160" relative="1" as="geometry">
            <mxPoint x="160" y="200" as="sourcePoint" />
            <mxPoint x="320" y="200" as="targetPoint" />
            <mxPoint as="offset" />
          </mxGeometry>
        </mxCell>
        <mxCell id="CLzJ8PDHlNXws62wAnhd-17" value="Extends" style="endArrow=block;endSize=16;endFill=0;html=1;rounded=0;exitX=1;exitY=0.5;exitDx=0;exitDy=0;entryX=0;entryY=0.5;entryDx=0;entryDy=0;" edge="1" parent="1" source="Xy3kY2UkPaOCshvsATr--2" target="CLzJ8PDHlNXws62wAnhd-4">
          <mxGeometry width="160" relative="1" as="geometry">
            <mxPoint x="170" y="210" as="sourcePoint" />
            <mxPoint x="330" y="210" as="targetPoint" />
          </mxGeometry>
        </mxCell>
        <mxCell id="CLzJ8PDHlNXws62wAnhd-18" value="Extends" style="endArrow=block;endSize=16;endFill=0;html=1;rounded=0;exitX=1;exitY=0.5;exitDx=0;exitDy=0;entryX=0;entryY=0.5;entryDx=0;entryDy=0;" edge="1" parent="1" source="Xy3kY2UkPaOCshvsATr--2" target="CLzJ8PDHlNXws62wAnhd-3">
          <mxGeometry width="160" relative="1" as="geometry">
            <mxPoint x="180" y="220" as="sourcePoint" />
            <mxPoint x="340" y="220" as="targetPoint" />
          </mxGeometry>
        </mxCell>
        <mxCell id="CLzJ8PDHlNXws62wAnhd-19" value="Extends" style="endArrow=block;endSize=16;endFill=0;html=1;rounded=0;exitX=1;exitY=0.5;exitDx=0;exitDy=0;entryX=0;entryY=0.5;entryDx=0;entryDy=0;" edge="1" parent="1" source="Xy3kY2UkPaOCshvsATr--2" target="CLzJ8PDHlNXws62wAnhd-2">
          <mxGeometry width="160" relative="1" as="geometry">
            <mxPoint x="190" y="250" as="sourcePoint" />
            <mxPoint x="350" y="250" as="targetPoint" />
          </mxGeometry>
        </mxCell>
        <mxCell id="d1KHpW20VsGowVeTyRXX-1" value="Registrando nuevo equipo" style="ellipse;whiteSpace=wrap;html=1;" vertex="1" parent="1">
          <mxGeometry x="450" y="490" width="140" height="70" as="geometry" />
        </mxCell>
        <mxCell id="d1KHpW20VsGowVeTyRXX-2" value="Generando orden de trabajo asociada a equipo ya registrado" style="ellipse;whiteSpace=wrap;html=1;" vertex="1" parent="1">
          <mxGeometry x="450" y="570" width="140" height="70" as="geometry" />
        </mxCell>
        <mxCell id="d1KHpW20VsGowVeTyRXX-3" value="Creando Cotización" style="ellipse;whiteSpace=wrap;html=1;" vertex="1" parent="1">
          <mxGeometry x="450" y="250" width="140" height="70" as="geometry" />
        </mxCell>
        <mxCell id="d1KHpW20VsGowVeTyRXX-4" value="Mostrando alerta de registro exitoso" style="ellipse;whiteSpace=wrap;html=1;" vertex="1" parent="1">
          <mxGeometry x="450" y="650" width="140" height="70" as="geometry" />
        </mxCell>
        <mxCell id="d1KHpW20VsGowVeTyRXX-5" value="Extends" style="endArrow=block;endSize=16;endFill=0;html=1;rounded=0;exitX=1;exitY=0.5;exitDx=0;exitDy=0;entryX=0;entryY=0.5;entryDx=0;entryDy=0;" edge="1" parent="1" source="Xy3kY2UkPaOCshvsATr--2" target="d1KHpW20VsGowVeTyRXX-1">
          <mxGeometry width="160" relative="1" as="geometry">
            <mxPoint x="380" y="580" as="sourcePoint" />
            <mxPoint x="500" y="580" as="targetPoint" />
            <mxPoint as="offset" />
          </mxGeometry>
        </mxCell>
        <mxCell id="d1KHpW20VsGowVeTyRXX-6" value="Extends" style="endArrow=block;endSize=16;endFill=0;html=1;rounded=0;exitX=1;exitY=0.5;exitDx=0;exitDy=0;entryX=0;entryY=0.5;entryDx=0;entryDy=0;" edge="1" parent="1" source="Xy3kY2UkPaOCshvsATr--2" target="d1KHpW20VsGowVeTyRXX-2">
          <mxGeometry width="160" relative="1" as="geometry">
            <mxPoint x="390" y="620" as="sourcePoint" />
            <mxPoint x="510" y="620" as="targetPoint" />
            <mxPoint as="offset" />
          </mxGeometry>
        </mxCell>
        <mxCell id="d1KHpW20VsGowVeTyRXX-7" value="Extends" style="endArrow=block;endSize=16;endFill=0;html=1;rounded=0;exitX=1;exitY=0.5;exitDx=0;exitDy=0;entryX=0;entryY=0.5;entryDx=0;entryDy=0;" edge="1" parent="1" source="Xy3kY2UkPaOCshvsATr--2" target="d1KHpW20VsGowVeTyRXX-4">
          <mxGeometry width="160" relative="1" as="geometry">
            <mxPoint x="380" y="620" as="sourcePoint" />
            <mxPoint x="500" y="620" as="targetPoint" />
            <mxPoint as="offset" />
          </mxGeometry>
        </mxCell>
        <mxCell id="d1KHpW20VsGowVeTyRXX-8" value="Extends" style="endArrow=block;endSize=16;endFill=0;html=1;rounded=0;exitX=1;exitY=0.5;exitDx=0;exitDy=0;entryX=0;entryY=0.5;entryDx=0;entryDy=0;" edge="1" parent="1" source="Xy3kY2UkPaOCshvsATr--2" target="d1KHpW20VsGowVeTyRXX-3">
          <mxGeometry width="160" relative="1" as="geometry">
            <mxPoint x="360" y="710" as="sourcePoint" />
            <mxPoint x="480" y="710" as="targetPoint" />
            <mxPoint as="offset" />
          </mxGeometry>
        </mxCell>
      </root>
    </mxGraphModel>
  </diagram>
</mxfile>
